<svg viewBox="0 0 3242 1211" version="1.1" xmlns="http://www.w3.org/2000/svg" xmlns:xlink="http://www.w3.org/1999/xlink" id="svg"> <title>floor2</title>   <defs> <linearGradient id="paint0_linear" x1="0" y1="0" x2="1" y2="0" gradientUnits="userSpaceOnUse" gradientTransform="matrix(2120.5 -3.56133e-14 -2.92622e-12 7731.18 565 -3038.09)"> <stop offset="0" stop-color="#D6D6D6"></stop> <stop offset="1" stop-color="#E6E6E6" stop-opacity="0"></stop> </linearGradient>                                                                  </defs> <g id="floor2"><path id="atrium" fill="#E0E0E0" d="M2642,642.0000610351562C2615,662.0000610351562,2609,700.0000610351562,2629,727L2704,830C2713,842,2726,851,2740,854C2739,851,2739,849,2739,846C2739,816,2764,791,2794,791C2803,791,2810,793,2818,797C2819,783,2816,768,2807,756C2798,744,2731,652.0000610351562,2731,652.0000610351562C2711,625.0000610351562,2673,618.5000610351562,2646,639.0000610351562L2642,642.0000610351562Z"></path><path id="mallshadow" fill="url(#paint0_linear)" d="M687,639L0,639L0,152L970,152L970,9L3018,9L3018,504L2727,504L2727,506L2638,506L2406,506L2253,609L2013,726L2013,743L2311,743L2311,807L1921,807C1884,816.8330078125,1722.9000244140625,836.5,1374.5,836.5C1026.0999755859375,836.5,771,704.8330078125,687,639Z"></path>   <g id="landmarks-empty" opacity="0.2"><path id="tech2" fill="#BDBDBD" d="M2519,546L2519,506L2623,506L2623,558L2600,575L2583,587L2583,546L2519,546Z"></path><path id="tech3" fill="#BDBDBD" d="M3037,1064L3010,1065L2986,1032L3021,1032L3021,957L3084,957L3084,1069L3037,1064Z"></path><path id="admhall" fill="#BDBDBD" d="M2313,838L2311,811L2505,811L2525,796.5L2525,682L2538,682L2538,802L2525,811L2505,825L2325,825L2313,838Z"></path><path id="b11" fill="#BDBDBD" d="M2781,683L2860,627L2896,676L2818,733L2781,683Z"></path><path id="b8" fill="#BDBDBD" d="M2678,532L2727,532L2747,559L2711,585L2678,543L2678,532Z"></path><path id="b28" fill="#BDBDBD" d="M2564,682L2538,682L2538,708L2569,686C2569,686,2567,682,2564,682Z"></path>       </g> <g id="landmarks-clothes"><path id="littlestar" fill="#00AF64" d="M2651.010009765625,894.010986328125L2673.010009765625,878.010986328125L2691.00244140625,903.00048828125L2669.002197265625,919.0003662109375L2651.010009765625,894.010986328125Z"></path><path id="unior" fill="#00AF64" d="M2711,585L2781,683L2860,627L2896,676L3037,575L3018,504L2727,504L2727,532L2747,559L2711,585Z"></path><path id="modnyirebenok" fill="#00AF64" d="M2867,800L2908,771L2930,801L2889,831L2867,800Z"></path><path id="budumamoy" fill="#00AF64" d="M2583,546L2519,546L2519,637L2583,587L2583,546Z"></path><path id="acoola" fill="#00AF64" d="M2525,811L2538,802L2615,747L2642,785L2597,817L2553,849L2525,811Z"></path><path id="bearrichie" fill="#00AF64" d="M2597,817L2642,785L2673.999755859375,831L2628.999755859375,863L2597,817Z"></path><path id="crockid" fill="#00AF64" d="M2547,924L2586,895L2626,949L2586,978L2547,924Z"></path><path id="malenkayaledi" fill="#00AF64" d="M2629,863L2674,831L2696,862L2673,878L2651,894L2629,863Z"></path><path id="reike" fill="#00AF64" d="M2553,849L2597,817L2629,863L2651,894L2669,919L2626,949L2586,895L2553,849Z"></path><path id="dochkisynochki" fill="#00AF64" d="M2325,825L2313,838C2313,838,2321,841.5,2332,865C2343,888.5,2339.5,942.5,2364,993C2388.5,1043.5,2429,1095,2429,1095L2586,978L2547,924L2586,895L2553,849L2525,811L2505,825L2325,825Z"></path><path id="kapika" fill="#00AF64" d="M2538,708L2569.000244140625,686L2587.000244140625,711L2538.000244140625,746L2538,708Z"></path><path id="s1000iodnatufelka" fill="#00AF64" d="M2538,746L2587,711L2615,747L2538,802L2538,746Z"></path>             </g> <g id="landmarks-maintance"><path id="wc5" fill="#56CCF2" d="M2623,506L2638,506L2638,535L2623,535L2623,506Z"></path><path id="wc7" fill="#56CCF2" d="M3021,993L2958,993L2986,1032L3021,1032L3021,993Z"></path><path id="wc6" fill="#56CCF2" d="M2962,977L2948,957L3021,957L3021,977L2962,977Z"></path>    </g> <g id="landmarks-entertaiment"><path id="piccolo" fill="#BB6BD9" d="M2811,842C2811,853.5980224609375,2801.597900390625,863,2790,863C2778.402099609375,863,2769,853.5980224609375,2769,842C2769,830.4020385742188,2778.402099609375,821,2790,821C2801.597900390625,821,2811,830.4020385742188,2811,842Z"></path><path id="yogurti2" fill="#BB6BD9" d="M2595,630C2595,635.5228271484375,2590.522705078125,640,2585,640C2579.47705078125,640,2575,635.5228271484375,2575,630C2575,624.4771728515625,2579.47705078125,620,2585,620C2590.522705078125,620,2595,624.4771728515625,2595,630Z"></path><path id="fishing" fill="#BB6BD9" d="M2551,656C2551,661.5228271484375,2546.522705078125,666,2541,666C2535.47705078125,666,2531,661.5228271484375,2531,656C2531,650.4771728515625,2535.47705078125,646,2541,646C2546.522705078125,646,2551,650.4771728515625,2551,656Z"></path><path id="detckieattractiony2" fill="#BB6BD9" d="M2764,912C2764,917.5228271484375,2759.522705078125,922,2754,922C2748.47705078125,922,2744,917.5228271484375,2744,912C2744,906.4771728515625,2748.47705078125,902,2754,902C2759.522705078125,902,2764,906.4771728515625,2764,912Z"></path><path id="dvorpomidor" fill="#BB6BD9" d="M2592.999755859375,1055L2577.999755859375,1055L2560,1190C2580.499755859375,1206.5,2615.499755859375,1213,2642,1216C2658.438720703125,1217.8609619140625,2673.45703125,1218.800048828125,2690,1219C2699.3701171875,1218.8509521484375,2707.721923828125,1218.301025390625,2719,1217C2734.3720703125,1215.22705078125,2758,1210,2758,1210L2681,1101L2681,1040L2626.999755859375,1026L2622.999755859375,1033L2592.999755859375,1055Z"></path><path id="babyland" fill="#BB6BD9" d="M2600,575L2623,558L2648,594L2626,610L2600,575Z"></path><path id="kidburg" fill="#BB6BD9" d="M2866,714L2878,730L2908,771L2930,801L2889,831C2895.453125,848.3590087890625,2900,866.39404296875,2900,886C2900,899.135009765625,2897.9853515625,911.7839965820312,2895,924L2932,934L2948,957L3084,957L3084,1069L3241,1084L3041,586L2866,714Z"></path><path id="kukumber" fill="#BB6BD9" d="M2693,1042L2693,1093L2774,1206C2807.02490234375,1195.2890625,2832,1185.9229736328125,2870,1164C2908,1142.0770263671875,2923.01708984375,1130.0679931640625,2946,1109L2858,994C2827.9150390625,1027.0035400390625,2784.177001953125,1048,2736,1048C2720.941650390625,1048,2706.856201171875,1045.78955078125,2693,1042Z"></path><path id="labirintum" fill="#BB6BD9" d="M2253,609L2253,632L2369.9970703125,632C2375.846923828125,627.60498046875,2383.118896484375,625,2391,625C2408.29296875,625,2424.5,637,2442,637L2519,637L2519,506L2406,506L2253,609Z"></path><path id="jokijoya" fill="#BB6BD9" d="M2525,682L2525,796.5L2505,811L2311,811L2311,743L2013,743L2013,726L2253,609L2253,632L2370,632C2361.5009765625,638.3856201171875,2356,648.55078125,2356,660C2356,679.3300170898438,2371.669921875,695,2391,695C2410,695,2410,682,2449,682L2525,682Z"></path>           </g> <g id="landmarks-beauty"><path id="voobrazhulya" fill="#E7B7E9" d="M2825,743L2866,714L2878,730L2837,760L2825,743Z"></path>  </g> <g id="landmarks-others"><path id="magmaster" fill="#F2994A" d="M2673,878L2696,862L2707,878C2707,878,2711,883,2711,886C2711,889,2708,891,2708,891L2691,903L2673,878Z"></path><path id="bookvoed" fill="#F2994A" d="M2858,993.9998168945312L2946,1109C2946,1109,2983.5,1064.5,3010,1065L2986,1032L2958,993L2925,948L2917,960.9998168945312L2885,951.999755859375C2877.946044921875,967.0631713867188,2869.066650390625,981.8458251953125,2858,993.9998168945312Z"></path><path id="kosmicheskiypesok" fill="#F2994A" d="M2721,939C2721,944.5228271484375,2716.522705078125,949,2711,949C2705.47705078125,949,2701,944.5228271484375,2701,939C2701,933.4771728515625,2705.47705078125,929,2711,929C2716.522705078125,929,2721,933.4771728515625,2721,939Z"></path><path id="happydays" fill="#F2994A" d="M2593.000244140625,1055L2623,1033L2627,1026C2627,1026,2620,1023,2613,1023C2596,1023,2580.5,1033.4998779296875,2578,1055C2578,1055,2580.808349609375,1055,2593.000244140625,1055Z"></path><path id="lego" fill="#F2994A" d="M2837,760L2877.999755859375,730L2907.999755859375,770.9998168945312L2866.999755859375,799.9998168945312L2837,760Z"></path>      </g> <g id="landmarks-jewelry"><path id="ukonika" fill="#56F2D4" d="M2647,993C2647,998.5228271484375,2642.522705078125,1003,2637,1003C2631.47705078125,1003,2627,998.5228271484375,2627,993C2627,987.4771728515625,2631.47705078125,983,2637,983C2642.522705078125,983,2647,987.4771728515625,2647,993Z"></path>  </g> <g id="landmarks-electonics"><path id="karkam2" fill="#2D9CDB" d="M2683,967C2683,972.5228271484375,2678.522705078125,977,2673,977C2667.47705078125,977,2663,972.5228271484375,2663,967C2663,961.4771728515625,2667.47705078125,957,2673,957C2678.522705078125,957,2683,961.4771728515625,2683,967Z"></path>  </g> </g></svg>