<svg viewBox="0 0 3236 1220" version="1.1" xmlns="http://www.w3.org/2000/svg" xmlns:xlink="http://www.w3.org/1999/xlink" id="svg"> <title>floor1</title>   <defs>                                                                                                                                                                                                                                                                                                                                                                                               </defs> <g id="floor1" opacity="0.8"> <g id="landmarks-clothes"><path id="falke" fill="#F2C94C" d="M1864,685L1814,685L1814,712L1864,712L1864,685Z"></path><path id="mf" fill="#00AF64" d="M1256,752C1256,757.5228271484375,1251.5228271484375,762,1246,762C1240.4771728515625,762,1236,757.5228271484375,1236,752C1236,746.4771728515625,1240.4771728515625,742,1246,742C1251.5228271484375,742,1256,746.4771728515625,1256,752Z"></path><path id="etre" fill="#00AF64" d="M1256,709C1256,714.5228271484375,1251.5228271484375,719,1246,719C1240.4771728515625,719,1236,714.5228271484375,1236,709C1236,703.4771728515625,1240.4771728515625,699,1246,699C1251.5228271484375,699,1256,703.4771728515625,1256,709Z"></path><path id="ostin" fill="#00AF64" d="M2072,311L2009,311L2009,458L2072,458L2072,311Z"></path><path id="caredesign" fill="#00AF64" d="M1125,662C1125,667.5228271484375,1120.5228271484375,672,1115,672C1109.4771728515625,672,1105,667.5228271484375,1105,662C1105,656.4771728515625,1109.4771728515625,652,1115,652C1120.5228271484375,652,1125,656.4771728515625,1125,662Z"></path><path id="s5essence" fill="#00AF64" d="M2162,481C2162,486.5228271484375,2157.52294921875,491,2152,491C2146.477294921875,491,2142,486.5228271484375,2142,481C2142,475.4771728515625,2146.477294921875,471,2152,471C2157.52294921875,471,2162,475.4771728515625,2162,481Z"></path><path id="drkoffer" fill="#00AF64" d="M1605,662C1605,667.5228271484375,1600.5228271484375,672,1595,672C1589.4771728515625,672,1585,667.5228271484375,1585,662C1585,656.4771728515625,1589.4771728515625,652,1595,652C1600.5228271484375,652,1605,656.4771728515625,1605,662Z"></path><path id="seduction" fill="#00AF64" d="M1428,569L1398,569L1398,639L1428,639L1428,569Z"></path><path id="hm" fill="#00AF64" d="M2313,837.0890502929688C2313,837.0890502929688,2320.8701171875,845.0890502929688,2323,848.0890502929688C2326.91015625,854.1010131835938,2330.257568359375,860.4620361328125,2333,867.0890502929688C2334.840087890625,871.8990478515625,2337.170166015625,881.9990234375,2338,887.0890502929688C2339,893.529052734375,2341.739990234375,927.9089965820312,2345,940.0890502929688C2347.090087890625,947.8890380859375,2358.91015625,983.6290283203125,2362,991.0889892578125C2366.3701171875,1001.6290283203125,2376.719970703125,1023.5590209960938,2383,1033.0889892578125C2388.590087890625,1041.55908203125,2408,1065.0889892578125,2408,1065.0889892578125L2446,1037.0889892578125L2481,1011.0889892578125L2530,974.0889892578125L2605,919.0890502929688L2626,948.0889892578125L2705.5,888.0890502929688C2716,879.5890502929688,2704.5,849.0890502929688,2699.5,841.5890502929688C2695.25,833.01904296875,2601,704.5887451171875,2601,704.5887451171875C2597,698.0887451171875,2586.566162109375,688.7979736328125,2579,687.0888061523438C2575.690185546875,686.5498657226562,2572.35107421875,686.2158813476562,2569,686.0888061523438C2540.7900390625,684.5587768554688,2456,685.0888061523438,2456,685.0888061523438L2456,824.0890502929688L2325,824.0890502929688L2313,837.0890502929688Z"></path><path id="vancliff" fill="#00AF64" d="M2551,1003L2502,1040L2481,1011L2530,974L2551,1003Z"></path><path id="geox" fill="#00AF64" d="M1399,752L1337,752L1337,685L1369,685L1369,733L1399,733L1399,752Z"></path><path id="karllagerfeld" fill="#00AF64" d="M1337,685L1308,685L1308,752L1337,752L1337,685Z"></path><path id="finnflare" fill="#00AF64" d="M1273,831L1367,836L1367,752L1308,752L1308,777L1273,777L1273,831Z"></path><path id="timberland" fill="#00AF64" d="M1220,724L1169,724L1169,783L1220,783L1220,724Z"></path><path id="rafinad" fill="#00AF64" d="M2563.919921875,534L2519,534L2519,564L2575.39990234375,564C2573.99951171875,553.23291015625,2570.065185546875,542.9514770507812,2563.919921875,534Z"></path><path id="sofia" fill="#00AF64" d="M1220,825L1125,811L1125,751L1169,751L1169,783L1220,783L1220,825Z"></path><path id="newbalance" fill="#00AF64" d="M1220,685L1169,685L1169,724L1220,724L1220,685Z"></path><path id="levis" fill="#00AF64" d="M1169,685L1125,685L1125,751L1169,751L1169,685Z"></path><path id="next" fill="#00AF64" d="M1170,569L1094,569L1094,639L1170,639L1170,569Z"></path><path id="guess" fill="#00AF64" d="M1033,792L1125,811L1125,685L1060,685L1060,751L1033,751L1033,792Z"></path><path id="charuel" fill="#00AF64" d="M1060,685L1010,685L1010,751L1060,751L1060,685Z"></path><path id="tomtailor" fill="#00AF64" d="M1033,792L974,776L974,685L1010,685L1010,751L1033,751L1033,792Z"></path><path id="bebakids" fill="#00AF64" d="M1732,639L1704,639L1704,603L1670,603L1670,569L1732,569L1732,639Z"></path><path id="s1001sumka" fill="#00AF64" d="M1095,504L1095,569L1033,569L1033,541L1063,541L1063,504L1095,504Z"></path><path id="vk" fill="#00AF64" d="M2364,543L2324,570L2324,504L2364,504L2364,543Z"></path><path id="uniqlo" fill="#00AF64" d="M3005,1061C3005,1061,2986.60009765625,1069.31005859375,2981,1073C2975.81005859375,1076.4100341796875,2966.64013671875,1084.8699951171875,2962,1089C2953.5400390625,1096.52001953125,2937.550048828125,1112.580078125,2929,1120C2924.16015625,1124.2000732421875,2909,1136,2909,1136L2874,1088L2755,922L2852.080078125,851L2959,998L3005,1061Z"></path><path id="sportmaster" fill="#00AF64" d="M2139,404L2139,458L2072,458L2072,311L2009,311L2009,34L2189,34L2189,404L2139,404Z"></path><path id="adidas" fill="#00AF64" d="M2874,1088L2819,1129L2698,963L2755,922L2874,1088Z"></path><path id="reebok" fill="#00AF64" d="M2839,1157L2798,1187L2772,1152L2744,1113L2707,1063L2657,993L2698,963L2819,1129L2839,1157Z"></path><path id="gloriajeans" fill="#00AF64" d="M2694,572L2779,685L2820,656L2858,709L2894,759L3044,648L3009,507L2744,507L2744,537L2694,572Z"></path><path id="familia" fill="#00AF64" d="M2427,395L2427,458L2339,458L2339,34L2493,34L2493,395L2427,395Z"></path><path id="deichmann" fill="#00AF64" d="M2009,34L1994,34L1994,301.0799865722656L1948,301.0799865722656L1948,458.0799865722656L2009,458.0799865722656L2009,34Z"></path><path id="behcetti" fill="#00AF64" d="M1887,394L1839,394L1839,458L1887,458L1887,394Z"></path><path id="ottimo" fill="#00AF64" d="M732,395L789,395L789,458L739,458L739,409L732,409L732,395Z"></path><path id="swank" fill="#00AF64" d="M2482,560L2436,560L2436,642L2482,642L2482,560Z"></path><path id="emi" fill="#00AF64" d="M2436,576L2400,576L2400,642L2436,642L2436,576Z"></path><path id="samsonite" fill="#00AF64" d="M1864,639L1825,639L1825,600L1811,600L1811,569L1864,569L1864,639Z"></path><path id="granddefile" fill="#00AF64" d="M2400,642L2314,642L2314,576L2324,570L2364,543L2405,512L2436,512L2436,576L2400,576L2400,642Z"></path><path id="mothercare" fill="#00AF64" d="M2203,645L2102,645L2102,570L2324,570L2314,576L2257,611L2221,634L2203,645Z"></path><path id="stepbystep" fill="#00AF64" d="M2314,576L2257,611L2257,642L2314,642L2314,576Z"></path><path id="bcforjunior" fill="#00AF64" d="M1950,569L1899,569L1899,639L1950,639L1950,569Z"></path><path id="marmalato" fill="#00AF64" d="M2069,539L2005,539L2005,570L2069,570L2069,539Z"></path><path id="womensecret" fill="#00AF64" d="M1670,569L1625,569L1625,639L1670,639L1670,569Z"></path><path id="alezar" fill="#00AF64" d="M2405,512L2364,543L2364,504L2405,504L2405,512Z"></path><path id="semprecaprediem" fill="#00AF64" d="M1763,569L1732,569L1732,639L1763,639L1763,569Z"></path><path id="annaverdi" fill="#00AF64" d="M1795,600L1795,639L1763,639L1763,569L1811,569L1811,600L1795,600Z"></path><path id="texier1951" fill="#00AF64" d="M2039,717L2004,731L2004,685L2039,685L2039,717Z"></path><path id="jeanssymphony" fill="#00AF64" d="M1899,569L1864,569L1864,639L1899,639L1899,569Z"></path><path id="pompa" fill="#00AF64" d="M1950,538L1887,538L1887,569L1950,569L1950,538Z"></path><path id="goldenpoint" fill="#00AF64" d="M1918,504L1887,504L1887,538L1918,538L1918,504Z"></path><path id="diplomat" fill="#00AF64" d="M1822,504L1887,504L1887,569L1822,569L1822,504Z"></path><path id="magazinl" fill="#00AF64" d="M1398,504L1368,504L1368,569L1398,569L1398,504Z"></path><path id="intimissimi" fill="#00AF64" d="M1262,504L1214,504L1214,569L1262,569L1262,504Z"></path><path id="buaro" fill="#00AF64" d="M1202,504L1170,504L1170,569L1202,569L1202,504Z"></path><path id="kusenkovv" fill="#00AF64" d="M2519,560L2482,560L2482,642L2507,642C2511.023193359375,641.9935302734375,2515.0380859375,641.6387939453125,2519,640.93994140625L2519,560Z"></path><path id="gizia" fill="#00AF64" d="M1124,504L1095,504L1095,569L1124,569L1124,504Z"></path><path id="strellson" fill="#00AF64" d="M1398,569L1338,569L1338,639L1398,639L1398,569Z"></path><path id="tommyhilfigerman" fill="#00AF64" d="M1338,569L1308,569L1308,639L1338,639L1338,569Z"></path><path id="wrangler" fill="#00AF64" d="M1308,569L1262,569L1262,639L1308,639L1308,569Z"></path><path id="tommyhilfigerwoman" fill="#00AF64" d="M1262,569L1214,569L1214,639L1262,639L1262,569Z"></path><path id="barbour" fill="#00AF64" d="M1202,569L1170,569L1170,639L1202,639L1202,569Z"></path><path id="lacoste" fill="#00AF64" d="M1094,569L1062,569L1062,639L1094,639L1094,569Z"></path><path id="copcopine" fill="#00AF64" d="M1062,569L1033,569L1033,639L1062,639L1062,569Z"></path><path id="calipso" fill="#00AF64" d="M1033,569L1000,569L1000,639L1033,639L1033,569Z"></path><path id="mariomachado" fill="#00AF64" d="M1000,569L972,569L972,639L1000,639L1000,569Z"></path><path id="golfstream" fill="#00AF64" d="M800,639L773,639L753,620L753,570L800,570L800,639Z"></path><path id="michaella" fill="#00AF64" d="M800,504L771,504L753,524L753,570L800,570L800,504Z"></path><path id="ullapopken" fill="#00AF64" d="M605,639L693,639L693,585L647,585L647,571L605,571L605,639Z"></path><path id="sharpei" fill="#00AF64" d="M647,544L693,544L693,585L647,585L647,544Z"></path><path id="mascotte" fill="#00AF64" d="M605,504.1700439453125L674,504L693,522L693,544L647,544L647,571L605,571.0800170898438L605,504.1700439453125Z"></path><path id="platok" fill="#00AF64" d="M2606,1062L2596,1091L2621,1100L2631,1071L2606,1062Z"></path><path id="manmanetti" fill="#00AF64" d="M2502,1040L2467,1066L2446,1037L2481,1011L2502,1040Z"></path><path id="rendezvous" fill="#00AF64" d="M2456,685L2407,685L2407,750L2371,750L2371,812L2456,812L2456,685Z"></path><path id="lakbi" fill="#00AF64" d="M2407,685L2371,685L2371,750L2407,750L2407,685Z"></path><path id="monki" fill="#00AF64" d="M2371,685L2298,685L2298,812L2371,812L2371,685Z"></path><path id="ecco" fill="#00AF64" d="M2298,685L2249,685L2249,768L2298,768L2298,685Z"></path><path id="kangaroo" fill="#00AF64" d="M2069,704L2069,685L2112,685L2069,704Z"></path><path id="palmetta" fill="#00AF64" d="M1993,735L1971,743L1971,685L1993,685L1993,735Z"></path><path id="kari" fill="#00AF64" d="M2596,1091L2572,1158L2651,1181L2744,1113L2707,1063L2699,1068L2672,1085L2631,1071L2621,1100L2596,1091Z"></path><path id="calzedonia" fill="#00AF64" d="M1971,743L1936,754L1936,685L1971,685L1971,743Z"></path><path id="mavi" fill="#00AF64" d="M1936,754L1864,775L1864,685L1936,685L1936,754Z"></path><path id="ralfringer" fill="#00AF64" d="M1705,752L1627,752L1627,783L1705,783L1705,752Z"></path><path id="wolford" fill="#00AF64" d="M1705,685L1680,685L1680,720L1705,720L1705,685Z"></path><path id="crocs" fill="#00AF64" d="M2519,505.00006103515625L2519,533.9400024414062L2563.919921875,533.9400024414062C2558.732666015625,526.3718872070312,2552.08837890625,519.914306640625,2544.375244140625,514.9451293945312C2536.662353515625,509.9759521484375,2528.03564453125,506.59503173828125,2519,505.00006103515625Z"></path><path id="marksnspencer" fill="#00AF64" d="M1920,809L2233,809L2233,685L2112,685L2069,704L2039,717L2004,731L2004,755L1982,755L1920,778L1920,809Z"></path><path id="byuste" fill="#00AF64" d="M1653,685L1627,685L1627,752L1653,752L1653,685Z"></path><path id="lee" fill="#00AF64" d="M1474,619L1474,569L1428,569L1428,639L1459,639C1462.5260009765625,631.3455200195312,1467.638916015625,624.5281372070312,1474,619Z"></path><path id="xo" fill="#00AF64" d="M1506,605L1506,584L1474,584L1474,619C1482.9691162109375,611.147216796875,1494.1455078125,606.2575073242188,1506,605Z"></path><path id="esteladoni" fill="#00AF64" d="M1550,619L1550,569L1520,569L1520,605C1531.144287109375,606.6647338867188,1541.5657958984375,611.5281372070312,1550,619Z"></path><path id="caterinaleman" fill="#00AF64" d="M1550,569L1550,619C1556.361083984375,624.5281372070312,1561.47412109375,631.3455200195312,1565,639L1579,639L1579,569L1550,569Z"></path><path id="mango" fill="#00AF64" d="M1627,825L1520,835L1520,769L1566,769L1566,685L1627,685L1627,825Z"></path><path id="ladygentelmancity" fill="#00AF64" d="M1458,752L1458,685L1399,685L1399,752L1367,752L1367,836L1506,835L1506,752L1458,752Z"></path>                                                                                             </g> <g id="landmarks-entertaiment"><path id="hochuhachapuri" fill="#BB6BD9" d="M972,504L972,521L915,521L935,511L935,504L972,504Z"></path><path id="lalalunch" fill="#BB6BD9" d="M919,735L974,735L974,776L919,759L919,735Z"></path><path id="funkypho" fill="#BB6BD9" d="M972,540L972,521L915,521L922,540L972,540Z"></path><path id="ponchkoff" fill="#BB6BD9" d="M733,612C733,617.5228271484375,728.5228271484375,622,723,622C717.4771728515625,622,713,617.5228271484375,713,612C713,606.4771728515625,717.4771728515625,602,723,602C728.5228271484375,602,733,606.4771728515625,733,612Z"></path><path id="detckieattractiony1" fill="#BB6BD9" d="M1742,662C1742,667.5228271484375,1737.5228271484375,672,1732,672C1726.4771728515625,672,1722,667.5228271484375,1722,662C1722,656.4771728515625,1726.4771728515625,652,1732,652C1737.5228271484375,652,1742,656.4771728515625,1742,662Z"></path><path id="supertachki" fill="#BB6BD9" d="M2493,1085C2493,1090.5228271484375,2488.52294921875,1095,2483,1095C2477.477294921875,1095,2473,1090.5228271484375,2473,1085C2473,1079.4771728515625,2477.477294921875,1075,2483,1075C2488.52294921875,1075,2493,1079.4771728515625,2493,1085Z"></path><path id="morezhelaniy" fill="#BB6BD9" d="M2431,481C2431,486.5228271484375,2426.52294921875,491,2421,491C2415.477294921875,491,2411,486.5228271484375,2411,481C2411,475.4771728515625,2415.477294921875,471,2421,471C2426.52294921875,471,2431,475.4771728515625,2431,481Z"></path><path id="musetti" fill="#BB6BD9" d="M997,662C997,667.5228271484375,992.5228271484375,672,987,672C981.4771728515625,672,977,667.5228271484375,977,662C977,656.4771728515625,981.4771728515625,652,987,652C992.5228271484375,652,997,656.4771728515625,997,662Z"></path><path id="yogurti" fill="#BB6BD9" d="M833,473C833,478.5228271484375,828.5228271484375,483,823,483C817.4771728515625,483,813,478.5228271484375,813,473C813,467.4771728515625,817.4771728515625,463,823,463C828.5228271484375,463,833,467.4771728515625,833,473Z"></path><path id="cheburum" fill="#BB6BD9" d="M838,680L788,680L788,701L838,701L838,680Z"></path><path id="mirvr" fill="#BB6BD9" d="M2436,504L2405,504L2405,512L2436,512L2436,504Z"></path><path id="chili" fill="#BB6BD9" d="M2560,1190L2594,1200L2630,1207L2659,1210L2677,1210L2677,1218L2710,1218L2735,1212L2772,1204L2747,1170L2772,1152L2744,1113L2651,1181L2572,1158L2560,1190Z"></path><path id="cinemapark" fill="#BB6BD9" d="M3017,473L2617,473L2617,458L2493,458L2493,34L2619,34L2619,2.842170943040401e-14L2872,2.842170943040401e-14L2872,38L3017,38L3017,473Z"></path><path id="cofix" fill="#BB6BD9" d="M3034,718L3058,701L3081,701L3091,724L3055,748L3034,718Z"></path><path id="bistronational" fill="#BB6BD9" d="M631,408L605,408L605,458L631,458L631,408Z"></path><path id="expresstrattoria" fill="#BB6BD9" d="M800,639L824,639L824,627L842,616L837,598L800,598L800,639Z"></path><path id="kartago" fill="#BB6BD9" d="M837,598C833.0001220703125,578.8735961914062,833.0001220703125,559.1264038085938,837,540L800,540L800,598L837,598Z"></path><path id="burgerking" fill="#BB6BD9" d="M783,504L783,493L787,489L844,489L850,510L837,540L800,540L800,504L783,504Z"></path><path id="britishbakery" fill="#BB6BD9" d="M997,458L1034,458L1034,424L1069,424L1069,383L997,383L997,458Z"></path><path id="solnechnoetsarstvo" fill="#BB6BD9" d="M2250,570L2324,570L2324,504L2281,504L2281,536L2250,536L2250,570Z"></path><path id="shokoladnica" fill="#BB6BD9" d="M2069,504L2005,504L2005,539L2069,539L2069,504Z"></path><path id="rozario" fill="#BB6BD9" d="M2190,504L2107,504L2107,570L2190,570L2190,504Z"></path><path id="kroshkakartoshka" fill="#BB6BD9" d="M925,569C924.9022216796875,578.7388305664062,923.8978881835938,588.4473876953125,922,598L972,598L972,569L925,569Z"></path><path id="teremok" fill="#BB6BD9" d="M972,540L922,540C923.8978881835938,549.5526123046875,924.9022216796875,559.26123046875,925,569L972,569L972,540Z"></path><path id="vasabi" fill="#BB6BD9" d="M2220,395L2189,395L2189,458L2220,458L2220,395Z"></path><path id="starbucks" fill="#BB6BD9" d="M2894,759L2853,789L2817,738L2858,709L2894,759Z"></path><path id="firewok" fill="#BB6BD9" d="M972,639L935,639L935,627L917,616L922,598L972,598L972,639Z"></path><path id="garson" fill="#BB6BD9" d="M2295,395L2252,395L2252,458L2295,458L2295,395Z"></path><path id="kfc" fill="#BB6BD9" d="M965,685L919,685L919,735L965,735L965,685Z"></path>                              </g> <g id="landmarks-maintance"><path id="school" fill="#56CCF2" d="M654,154L605,154L605,290L654,290L654,154Z"></path><path id="wc4" fill="#56CCF2" d="M3019,1046L3019,959L2945,959L2967,992L2959,998L3005,1061L3019,1046Z"></path><path id="wc3" fill="#56CCF2" d="M2493,395L2459,395L2459,458L2493,458L2493,395Z"></path><path id="wc1" fill="#56CCF2" d="M654,290L605,290L605,408L654,408L654,290Z"></path><path id="wc2" fill="#56CCF2" d="M1506,550L1474,550L1474,584L1506,584L1506,550Z"></path>      </g> <g id="landmarks-foodandhome"><path id="primosentimento" fill="#EB5757" d="M1843,481C1843,486.5228271484375,1838.5228271484375,491,1833,491C1827.4771728515625,491,1823,486.5228271484375,1823,481C1823,475.4771728515625,1827.4771728515625,471,1833,471C1838.5228271484375,471,1843,475.4771728515625,1843,481Z"></path><path id="chainyislon" fill="#EB5757" d="M2098,481C2098,486.5228271484375,2093.52294921875,491,2088,491C2082.477294921875,491,2078,486.5228271484375,2078,481C2078,475.4771728515625,2082.477294921875,471,2088,471C2093.52294921875,471,2098,475.4771728515625,2098,481Z"></path><path id="stopexpress" fill="#EB5757" d="M797,659C797,664.5228271484375,792.5228271484375,669,787,669C781.4771728515625,669,777,664.5228271484375,777,659C777,653.4771728515625,781.4771728515625,649,787,649C792.5228271484375,649,797,653.4771728515625,797,659Z"></path><path id="tac" fill="#EB5757" d="M2164,404L2138,404L2138,458L2164,458L2164,404Z"></path><path id="cleanelly" fill="#EB5757" d="M1368,504L1338,504L1338,569L1368,569L1368,504Z"></path><path id="grondard" fill="#EB5757" d="M1419,481C1419,486.5228271484375,1414.5228271484375,491,1409,491C1403.4771728515625,491,1399,486.5228271484375,1399,481C1399,475.4771728515625,1403.4771728515625,471,1409,471C1414.5228271484375,471,1419,475.4771728515625,1419,481Z"></path><path id="sundukfunduk" fill="#EB5757" d="M994,481C994,486.5228271484375,989.5228271484375,491,984,491C978.4771728515625,491,974,486.5228271484375,974,481C974,475.4771728515625,978.4771728515625,471,984,471C989.5228271484375,471,994,475.4771728515625,994,481Z"></path><path id="americashop" fill="#EB5757" d="M1063,481C1063,486.5228271484375,1058.5228271484375,491,1053,491C1047.4771728515625,491,1043,486.5228271484375,1043,481C1043,475.4771728515625,1047.4771728515625,471,1053,471C1058.5228271484375,471,1063,475.4771728515625,1063,481Z"></path><path id="baccarat" fill="#EB5757" d="M1176,481C1176,486.5228271484375,1171.5228271484375,491,1166,491C1160.4771728515625,491,1156,486.5228271484375,1156,481C1156,475.4771728515625,1160.4771728515625,471,1166,471C1171.5228271484375,471,1176,475.4771728515625,1176,481Z"></path><path id="woolhouse" fill="#EB5757" d="M1579,504L1550,504L1550,569L1579,569L1579,504Z"></path><path id="somele" fill="#EB5757" d="M1170,504L1124,504L1124,569L1170,569L1170,504Z"></path><path id="kompaszdorovya" fill="#EB5757" d="M1631,504L1579,504L1579,569L1631,569L1631,504Z"></path><path id="kofeinayakantata" fill="#EB5757" d="M1115,417L1095,417L1095,458L1115,458L1115,417Z"></path><path id="ifz" fill="#EB5757" d="M2586,977L2551,1003L2530,974L2565,948L2586,977Z"></path><path id="askona" fill="#EB5757" d="M1864,752L1813,752L1813,741L1759,741L1759,712L1864,712L1864,752Z"></path><path id="magazindobryhdel" fill="#EB5757" d="M2459,395L2427,395L2427,458L2459,458L2459,395Z"></path><path id="domovoy" fill="#EB5757" d="M2339,458L2295,458L2295,395L2189,395L2189,34L2339,34L2339,458Z"></path><path id="lemurrr" fill="#EB5757" d="M1799,409L1755,409L1755,458L1799,458L1799,409Z"></path><path id="berghoff" fill="#EB5757" d="M2055,570L2005,570L2005,593L2055,593L2055,570Z"></path><path id="ashan" fill="#EB5757" d="M1822.8800048828125,8L971,8L971,383L1095,383L1095,417L1115,417L1115,458L1731,458L1731,409L1822.8800048828125,409L1822.8800048828125,8Z"></path><path id="fissman" fill="#EB5757" d="M997,383L971,383L971,458L997,458L997,383Z"></path><path id="obi" fill="#EB5757" d="M605,154L0,154L0,639L605,639L605,154Z"></path><path id="nutrifit" fill="#EB5757" d="M1069,424L1034,424L1034,458L1069,458L1069,424Z"></path>                        </g> <g id="landmarks-electronics"><path id="izone" fill="#2D9CDB" d="M2025,481C2025,486.5228271484375,2020.5228271484375,491,2015,491C2009.4771728515625,491,2005,486.5228271484375,2005,481C2005,475.4771728515625,2009.4771728515625,471,2015,471C2020.5228271484375,471,2025,475.4771728515625,2025,481Z"></path><path id="qsticker" fill="#2D9CDB" d="M2599,1012C2599,1017.5228271484375,2594.52294921875,1022,2589,1022C2583.477294921875,1022,2579,1017.5228271484375,2579,1012C2579,1006.4771728515625,2583.477294921875,1002,2589,1002C2594.52294921875,1002,2599,1006.4771728515625,2599,1012Z"></path><path id="beeline" fill="#2D9CDB" d="M1822,504L1795,504L1795,540L1822,540L1822,504Z"></path><path id="iport" fill="#2D9CDB" d="M2005,645L2069,645L2069,570L2055,570L2055,593L2005,593L2005,645Z"></path><path id="karkam" fill="#2D9CDB" d="M1752,481C1752,486.5228271484375,1747.5228271484375,491,1742,491C1736.4771728515625,491,1732,486.5228271484375,1732,481C1732,475.4771728515625,1736.4771728515625,471,1742,471C1747.5228271484375,471,1752,475.4771728515625,1752,481Z"></path><path id="mediamarkt" fill="#2D9CDB" d="M957.02001953125,458L957.02001953125,212L794.02001953125,212L794.02001953125,152L698.02001953125,152L698.02001953125,185L666,185L666,395L850.02001953125,395L850.02001953125,458L957.02001953125,458Z"></path><path id="megafonru" fill="#2D9CDB" d="M1763,569L1822,569L1822,540L1795,540L1795,504L1763,504L1763,569Z"></path><path id="mi" fill="#2D9CDB" d="M696,395L666,395L666,458L696,458L696,395Z"></path><path id="mts" fill="#2D9CDB" d="M1000,504L972,504L972,569L1000,569L1000,504Z"></path><path id="redmond" fill="#2D9CDB" d="M1550,504L1520,504L1520,569L1550,569L1550,504Z"></path><path id="s220volt" fill="#2D9CDB" d="M1033,504L1000,504L1000,569L1033,569L1033,504Z"></path><path id="samsung" fill="#2D9CDB" d="M696,458L739,458L739,409L732,409L732,395L696,395L696,458Z"></path><path id="sonycentre" fill="#2D9CDB" d="M2102,570L2069,570L2069,645L2102,645L2102,570Z"></path><path id="svyaznoy" fill="#2D9CDB" d="M1763,504L1732,504L1732,569L1763,569L1763,504Z"></path><path id="telefonru" fill="#2D9CDB" d="M1732,504L1700,504L1700,569L1732,569L1732,504Z"></path>                </g> <g id="landmarks-jewelry"><path id="aurum" fill="#FFFFFF" d="M2638,1005L2620,1023L2644,1030L2652,1023L2638,1005Z"></path><path id="arcobaleno" fill="#56F2D4" d="M2257,642L2221,645L2221,634L2257,611L2257,642Z"></path><path id="busomania" fill="#56F2D4" d="M2681,537L2681,553L2694,572L2744,537L2681,537Z"></path><path id="diamant" fill="#56F2D4" d="M1813,741L1759,741L1759,767L1813,767L1813,741Z"></path><path id="estet" fill="#56F2D4" d="M1399,685L1369,685L1369,733L1399,733L1399,685Z"></path><path id="harold" fill="#56F2D4" d="M1308,685L1273,685L1273,726L1308,726L1308,685Z"></path><path id="marymelody" fill="#56F2D4" d="M1301,662C1301,667.5228271484375,1296.5228271484375,672,1291,672C1285.4771728515625,672,1281,667.5228271484375,1281,662C1281,656.4771728515625,1285.4771728515625,652,1291,652C1296.5228271484375,652,1301,656.4771728515625,1301,662Z"></path><path id="rif" fill="#56F2D4" d="M1948,481C1948,486.5228271484375,1943.5228271484375,491,1938,491C1932.4771728515625,491,1928,486.5228271484375,1928,481C1928,475.4771728515625,1932.4771728515625,471,1938,471C1943.5228271484375,471,1948,475.4771728515625,1948,481Z"></path><path id="jenavi" fill="#56F2D4" d="M2882,805C2882,810.5228271484375,2877.52294921875,815,2872,815C2866.477294921875,815,2862,810.5228271484375,2862,805C2862,799.4771728515625,2866.477294921875,795,2872,795C2877.52294921875,795,2882,799.4771728515625,2882,805Z"></path><path id="krasnozoloto" fill="#56F2D4" d="M1428,504L1398,504L1398,537L1428,537L1428,504Z"></path><path id="pandora" fill="#56F2D4" d="M1704,603L1670,603L1670,639L1704,639L1704,603Z"></path><path id="s315" fill="#56F2D4" d="M2069,704L2039,717L2039,685L2069,685L2069,704Z"></path><path id="sunlight" fill="#56F2D4" d="M2620,1023L2606,1062L2631,1071L2672,1085L2699,1068L2678,1040L2644,1030L2620,1023Z"></path><path id="swarovsky" fill="#56F2D4" d="M2543,631.8699951171875C2557.128173828125,623.217529296875,2567.6787109375,609.7784423828125,2572.72998046875,594L2543,594L2543,631.8699951171875Z"></path><path id="swatch" fill="#56F2D4" d="M1705,720L1680,720L1680,752L1705,752L1705,720Z"></path><path id="tous" fill="#56F2D4" d="M1825,600L1795,600L1795,639L1825,639L1825,600Z"></path><path id="valtera" fill="#56F2D4" d="M1308,726L1273,726L1273,752L1308,752L1308,726Z"></path>                  </g> <g id="landmarks-services"><path id="aurumservice" fill="#828282" d="M756,659C756,664.5228271484375,751.5228271484375,669,746,669C740.4771728515625,669,736,664.5228271484375,736,659C736,653.4771728515625,740.4771728515625,649,746,649C751.5228271484375,649,756,653.4771728515625,756,659Z"></path><path id="boft" fill="#828282" d="M2617,556C2617,561.5228271484375,2612.52294921875,566,2607,566C2601.477294921875,566,2597,561.5228271484375,2597,556C2597,550.4771728515625,2601.477294921875,546,2607,546C2612.52294921875,546,2617,550.4771728515625,2617,556Z"></path><path id="bileterru" fill="#828282" d="M2493,458L2533,458L2533,468L2493,468L2493,458Z"></path><path id="centrbytovyhuslug" fill="#828282" d="M1627,783L1627,825L1654,820.5L1654,783L1627,783Z"></path><path id="fabbrica" fill="#828282" d="M2221,634L2203,645L2221,645L2221,634Z"></path><path id="fotogravirui" fill="#828282" d="M2584,491C2584,496.5228271484375,2579.52294921875,501,2574,501C2568.477294921875,501,2564,496.5228271484375,2564,491C2564,485.4771728515625,2568.477294921875,481,2574,481C2579.52294921875,481,2584,485.4771728515625,2584,491Z"></path><path id="trikita" fill="#828282" d="M1705,783L1677,783L1677,817L1705,812L1705,783Z"></path><path id="iportappleservice" fill="#828282" d="M654,408L631,408L631,458L654,458L654,408Z"></path><path id="maximilian" fill="#828282" d="M837,659C837,664.5228271484375,832.5228271484375,669,827,669C821.4771728515625,669,817,664.5228271484375,817,659C817,653.4771728515625,821.4771728515625,649,827,649C832.5228271484375,649,837,653.4771728515625,837,659Z"></path><path id="mediamarktservice" fill="#828282" d="M789,395L850,395L850,458L789,458L789,395Z"></path><path id="petned" fill="#828282" d="M1987,536C1987,541.5228271484375,1982.5228271484375,546,1977,546C1971.4771728515625,546,1967,541.5228271484375,1967,536C1967,530.4771728515625,1971.4771728515625,526,1977,526C1982.5228271484375,526,1987,530.4771728515625,1987,536Z"></path><path id="planeta" fill="#828282" d="M2250,504L2226,504L2226,536L2250,536L2250,504Z"></path><path id="printmarket" fill="#828282" d="M1654,783L1654,820.5L1677.0001220703125,817L1677.0001220703125,783L1654,783Z"></path><path id="sluzhbazanyatosti" fill="#828282" d="M733,524C733,529.5228271484375,728.5228271484375,534,723,534C717.4771728515625,534,713,529.5228271484375,713,524C713,518.4771728515625,717.4771728515625,514,723,514C728.5228271484375,514,733,518.4771728515625,733,524Z"></path>               </g> <g id="landmarks-beauty"><path id="polaroid" fill="#E7B7E9" d="M1428,537L1428,504L1474,504L1474,569L1398,569L1398,537L1428,537Z"></path><path id="naturasiberica" fill="#E7B7E9" d="M1105,481C1105,486.5228271484375,1100.5228271484375,491,1095,491C1089.4771728515625,491,1085,486.5228271484375,1085,481C1085,475.4771728515625,1089.4771728515625,471,1095,471C1100.5228271484375,471,1105,475.4771728515625,1105,481Z"></path><path id="studialenyleninoy" fill="#E7B7E9" d="M1987,662C1987,667.5228271484375,1982.5228271484375,672,1977,672C1971.4771728515625,672,1967,667.5228271484375,1967,662C1967,656.4771728515625,1971.4771728515625,652,1977,652C1982.5228271484375,652,1987,656.4771728515625,1987,662Z"></path><path id="sozvezdiekrasoty" fill="#E7B7E9" d="M1308,481C1308,486.5228271484375,1303.5228271484375,491,1298,491C1292.4771728515625,491,1288,486.5228271484375,1288,481C1288,475.4771728515625,1292.4771728515625,471,1298,471C1303.5228271484375,471,1308,475.4771728515625,1308,481Z"></path><path id="ostrovzdorovya" fill="#E7B7E9" d="M1484,481C1484,486.5228271484375,1479.5228271484375,491,1474,491C1468.4771728515625,491,1464,486.5228271484375,1464,481C1464,475.4771728515625,1468.4771728515625,471,1474,471C1479.5228271484375,471,1484,475.4771728515625,1484,481Z"></path><path id="grimerka6" fill="#E7B7E9" d="M1917,662C1917,667.5228271484375,1912.5228271484375,672,1907,672C1901.4771728515625,672,1897,667.5228271484375,1897,662C1897,656.4771728515625,1901.4771728515625,652,1907,652C1912.5228271484375,652,1917,656.4771728515625,1917,662Z"></path><path id="seacret" fill="#E7B7E9" d="M1667,481C1667,486.5228271484375,1662.5228271484375,491,1657,491C1651.4771728515625,491,1647,486.5228271484375,1647,481C1647,475.4771728515625,1651.4771728515625,471,1657,471C1662.5228271484375,471,1667,475.4771728515625,1667,481Z"></path><path id="topgun" fill="#E7B7E9" d="M2626,948L2586,977L2565,948L2605,919L2626,948Z"></path><path id="unidrugs" fill="#E7B7E9" d="M2467,1066L2429,1094L2408,1065L2446,1037L2467,1066Z"></path><path id="notaserdca" fill="#E7B7E9" d="M1680,685L1653,685L1653,752L1680,752L1680,685Z"></path><path id="viva" fill="#E7B7E9" d="M1520,721L1520,769L1566,769L1566,685C1558.300048828125,703.75,1540.739990234375,718.1400146484375,1520,721Z"></path><path id="thebodyshop" fill="#E7B7E9" d="M1458,685L1458,752L1506,752L1506,721C1495.5054931640625,719.8569946289062,1485.5118408203125,715.9118041992188,1477.0665283203125,709.5779418945312C1468.621337890625,703.2440185546875,1462.0357666015625,694.7546997070312,1458,685Z"></path><path id="loccitane" fill="#E7B7E9" d="M1308,752L1273,752L1273,777L1308,777L1308,752Z"></path><path id="letoile" fill="#E7B7E9" d="M2862,844L2945,959L3007,959L3076,909L3009,817L2978,841L2939,788L2862,844Z"></path><path id="profiline" fill="#E7B7E9" d="M1755,409L1731,409L1731,458L1755,458L1755,409Z"></path><path id="mac" fill="#E7B7E9" d="M2519,640.93994140625C2527.49951171875,639.4533081054688,2535.641845703125,636.376220703125,2543,631.8699951171875L2543,594L2519,594L2519,640.93994140625Z"></path><path id="linzmaster" fill="#E7B7E9" d="M1625,569L1579,569L1579,639L1625,639L1625,569Z"></path><path id="tonymoly" fill="#E7B7E9" d="M1950,504L1918,504L1918,538L1950,538L1950,504Z"></path><path id="yvesrocher" fill="#E7B7E9" d="M1338,504L1308,504L1308,569L1338,569L1338,504Z"></path><path id="zinger" fill="#E7B7E9" d="M1063,504L1033,504L1033,541L1063,541L1063,504Z"></path><path id="zajdiuvidish" fill="#E7B7E9" d="M2519,564L2519,594L2572.72998046875,594C2574.90185546875,587.2117919921875,2576.0048828125,580.127197265625,2576,573C2575.99267578125,569.9902954101562,2575.792236328125,566.9840698242188,2575.39990234375,564L2519,564Z"></path><path id="aptekaraduga" fill="#E7B7E9" d="M1308,504L1262,504L1262,569L1308,569L1308,504Z"></path>                       </g> <g id="landmarks-others"><path id="miledi" fill="#F2994A" d="M2670,554L2647,554L2632,537L2632,522L2670,522L2670,554Z"></path><path id="tabakonpremium" fill="#F2994A" d="M1095,383L1069,383L1069,458L1095,458L1095,383Z"></path><path id="hobbity" fill="#F2994A" d="M2971,764L3009,817L3076,909L3132,867L3102,826L3124,809L3100,750L3071,771L3055,748L3034,718L2971,764Z"></path><path id="malenkijgenij" fill="#F2994A" d="M2250,570L2190,570L2190,504L2226,504L2226,536L2250,536L2250,570Z"></path><path id="soldatudachi" fill="#F2994A" d="M2281,504L2250,504L2250,536L2281,536L2281,504Z"></path><path id="veselayazateya" fill="#F2994A" d="M1670,504L1631,504L1631,569L1670,569L1670,504Z"></path><path id="cvetnoi" fill="#F2994A" d="M1742,736C1742,741.5228271484375,1737.5228271484375,746,1732,746C1726.4771728515625,746,1722,741.5228271484375,1722,736C1722,730.4771728515625,1726.4771728515625,726,1732,726C1737.5228271484375,726,1742,730.4771728515625,1742,736Z"></path><path id="evoimpressions" fill="#F2994A" d="M1856,662C1856,667.5228271484375,1851.5228271484375,672,1846,672C1840.4771728515625,672,1836,667.5228271484375,1836,662C1836,656.4771728515625,1840.4771728515625,652,1846,652C1851.5228271484375,652,1856,656.4771728515625,1856,662Z"></path><path id="ajour" fill="#F2994A" d="M1560,481C1560,486.5228271484375,1555.5228271484375,491,1550,491C1544.4771728515625,491,1540,486.5228271484375,1540,481C1540,475.4771728515625,1544.4771728515625,471,1550,471C1555.5228271484375,471,1560,475.4771728515625,1560,481Z"></path><path id="seacret" fill="#F2994A" d="M1667,481C1667,486.5228271484375,1662.5228271484375,491,1657,491C1651.4771728515625,491,1647,486.5228271484375,1647,481C1647,475.4771728515625,1651.4771728515625,471,1657,471C1662.5228271484375,471,1667,475.4771728515625,1667,481Z"></path><path id="rybachok" fill="#F2994A" d="M2189,404L2165,404L2165,458L2189,458L2189,404Z"></path>            </g> <g id="landmarks-empty" opacity="0.6"><path id="cargo" fill="#FFFFFF" d="M3019,959L3007,959L3076,909L3132,867L3102,826L3124,809L3234,1082L3005,1061L3019,1046L3019,959Z"></path><path id="a6" fill="#FFFFFF" d="M2519,505.0600891113281C2515.0380859375,504.3612365722656,2511.023193359375,504.0065002441406,2507,504L2482,504L2482,560L2519,560L2519,505.0600891113281Z"></path><path id="s97" fill="#FFFFFF" d="M1759,802L1864,775L1864,752L1813,752L1813,767L1759,767L1759,802Z"></path><path id="trainingzone" fill="#FFFFFF" d="M2803,1195L2798,1187L2839,1157L2819,1129L2874,1088L2909,1136L2878,1158L2830,1182L2803,1195Z"></path><path id="a18" fill="#FFFFFF" d="M2939,788L2978,841L3009,817L2971,764L2939,788Z"></path><path id="s19" fill="#FFFFFF" d="M2252,395L2220,395L2220,458L2252,458L2252,395Z"></path><path id="a2b" fill="#FFFFFF" d="M2482,504L2436,504L2436,560L2482,560L2482,504Z"></path><path id="s26" fill="#FFFFFF" d="M2107,504L2069,504L2069,570L2107,570L2107,504Z"></path><path id="g3s1213" fill="#FFFFFF" d="M1994,34L1839,34L1839,394L1887,394L1887,457.8800048828125L1948,457.8800048828125L1948,301L1994,301L1994,34Z"></path><path id="s37" fill="#FFFFFF" d="M1700,504L1670,504L1670,569L1700,569L1700,504Z"></path><path id="s44" fill="#FFFFFF" d="M1506,504L1474,504L1474,550L1506,550L1506,504Z"></path><path id="s92" fill="#FFFFFF" d="M1814,685L1759,685L1759,712L1814,712L1814,685Z"></path>             </g> <g id="landmarks-soon"><path id="kladovaya" fill="#56F2D4" d="M1823,409L1799,409L1799,458L1823,458L1823,409Z"></path><path id="dvizhok" fill="#F2C94C" d="M838,731L779,707L779,701L838,701L838,731Z"></path><path id="vans" fill="#F2C94C" d="M2858,709L2817,738L2779,685L2820,656L2858,709Z"></path>    </g> </g></svg>